<?xml version="1.0" encoding="iso-8859-1"?>
<!-- Generator: Adobe Illustrator 16.0.0, SVG Export Plug-In . SVG Version: 6.00 Build 0)  -->
<!DOCTYPE svg PUBLIC "-//W3C//DTD SVG 1.1//EN" "http://www.w3.org/Graphics/SVG/1.1/DTD/svg11.dtd">
<svg version="1.1" id="Capa_1" xmlns="http://www.w3.org/2000/svg" xmlns:xlink="http://www.w3.org/1999/xlink" x="0px" y="0px"
	 viewBox="0 0 123.773 123.773" 
	 xml:space="preserve">
<g>
	<g>
		<circle cx="27.91" cy="37.89" r="8.345"/>
		<path d="M55.813,49.785c0-15.388-12.519-27.905-27.907-27.905S0,34.397,0,49.785c0,15.389,12.519,27.905,27.906,27.905
			C43.294,77.691,55.813,65.174,55.813,49.785z M37.512,71.085c-0.349,0.158-0.703,0.308-1.062,0.448V59.546
			C37.602,61.558,38.309,67.361,37.512,71.085z M19.37,71.537c-0.361-0.143-0.718-0.292-1.07-0.452
			c-0.798-3.731-0.089-9.541,1.07-11.556V71.537z M22.78,48.059c-0.146,0.062-0.291,0.121-0.429,0.205
			c-3.118,1.912-11.079,7.037-10.68,16.713c0.014,0.354,0.039,0.969,0.078,1.675c-4.443-4.258-7.216-10.244-7.216-16.867
			c0-12.889,10.483-23.373,23.372-23.373S51.28,36.896,51.28,49.785c0,6.628-2.777,12.615-7.224,16.874
			c0.032-0.615,0.058-1.145,0.074-1.448c0.537-9.827-7.527-15.018-10.669-16.946c-0.141-0.086-0.288-0.146-0.436-0.21
			c-0.929-0.62-1.972-1.073-3.036-1.337l-2.079,2.094l-2.015-2.116c-0.007,0.002-0.014,0.003-0.021,0.004
			C24.788,46.958,23.724,47.423,22.78,48.059z M25.88,62.572l2.011-13.452h0.039l2.014,13.452l-2.014,2.754h-0.039L25.88,62.572z"/>
		<path d="M95.715,45.22c-15.475,0-28.062,12.586-28.062,28.062c0,15.472,12.587,28.058,28.062,28.058
			c15.473,0,28.059-12.586,28.059-28.058C123.773,57.806,111.188,45.22,95.715,45.22z M95.715,96.911
			c-13.033,0-23.635-10.603-23.635-23.631c0-13.033,10.602-23.635,23.635-23.635c13.029,0,23.631,10.602,23.631,23.635
			C119.346,86.31,108.744,96.911,95.715,96.911z"/>
		<path d="M112.98,75.602l-2.02-0.745c0.159-1.474,0.109-2.974-0.17-4.466l1.951-0.897c1.217-0.56,1.75-2.008,1.189-3.228
			l-1.137-2.468c-0.562-1.217-2.01-1.754-3.227-1.194l-1.95,0.9c-0.954-1.181-2.06-2.194-3.28-3.032l0.744-2.015
			c0.463-1.259-0.184-2.659-1.439-3.123l-2.553-0.945c-1.219-0.446-2.672,0.225-3.121,1.439l-0.746,2.018
			c-1.471-0.156-2.971-0.105-4.461,0.169l-0.899-1.946c-0.562-1.217-2.007-1.754-3.228-1.191l-2.47,1.136
			c-1.214,0.562-1.749,2.011-1.19,3.225l0.902,1.952c-1.182,0.955-2.197,2.062-3.035,3.283l-2.015-0.745
			c-1.217-0.45-2.674,0.22-3.123,1.437l-0.942,2.556c-0.226,0.608-0.199,1.269,0.072,1.857c0.274,0.59,0.758,1.037,1.366,1.262
			l2.017,0.746c-0.158,1.471-0.105,2.973,0.168,4.463l-1.949,0.901c-1.217,0.559-1.748,2.006-1.189,3.22l1.143,2.474
			c0.56,1.218,2.004,1.753,3.221,1.19l1.951-0.897c0.953,1.183,2.062,2.196,3.283,3.031l-0.746,2.016
			c-0.227,0.608-0.198,1.27,0.072,1.858c0.271,0.59,0.756,1.042,1.364,1.265l2.556,0.942c0.606,0.225,1.267,0.197,1.857-0.07
			c0.589-0.271,1.038-0.76,1.262-1.366l0.747-2.021c1.468,0.16,2.97,0.108,4.464-0.168l0.896,1.95
			c0.563,1.215,2.011,1.752,3.226,1.188l2.471-1.136c1.222-0.562,1.754-2.006,1.193-3.226l-0.898-1.949
			c1.18-0.955,2.197-2.062,3.031-3.282l2.02,0.747c0.607,0.227,1.268,0.198,1.859-0.074c0.588-0.271,1.035-0.758,1.262-1.363
			l0.941-2.554C114.883,77.466,114.238,76.064,112.98,75.602z M99.611,81.95c-1.273,0.586-2.623,0.883-4.02,0.883
			c-3.738,0-7.168-2.194-8.73-5.591c-2.219-4.813-0.104-10.536,4.706-12.751c1.274-0.589,2.625-0.886,4.017-0.886
			c3.742,0,7.172,2.194,8.737,5.593C106.535,74.012,104.426,79.733,99.611,81.95z"/>
		<path d="M93.795,34.195l-5.668-0.477l-0.492,5.865l15.539,1.304l0.334-15.854l-5.885-0.125l-0.095,4.55
			c-26.304-31.94-58.794-13.11-59.135-12.905l3.019,5.049C42.624,20.877,70.514,4.738,93.795,34.195z"/>
		<path d="M24.44,89.863l5.671,0.427l0.44-5.868l-15.549-1.169L14.804,99.11l5.886,0.073l0.057-4.551
			c26.581,31.708,58.906,12.595,59.245,12.39l-3.062-5.023C75.723,102.735,47.976,119.117,24.44,89.863z"/>
	</g>
</g>
<g>
</g>
<g>
</g>
<g>
</g>
<g>
</g>
<g>
</g>
<g>
</g>
<g>
</g>
<g>
</g>
<g>
</g>
<g>
</g>
<g>
</g>
<g>
</g>
<g>
</g>
<g>
</g>
<g>
</g>
</svg>
