<svg id="Capa_1" viewBox="0 0 195.545 195.545"  xmlns="http://www.w3.org/2000/svg"><path d="m76.367 178.086h42.807c-4.302-4.763-6.834-11.855-7.34-20.951h-28.127c-.506 9.096-3.038 16.188-7.34 20.951z"/><path d="m143.167 185.069h-6.984-76.821-6.984c-1.924 0-3.492 1.568-3.492 3.492s1.568 3.492 3.492 3.492h90.789c1.924 0 3.492-1.568 3.492-3.492s-1.568-3.492-3.492-3.492z"/><path d="m10.476 129.199h-10.476v13.964c0 3.855 3.132 6.987 6.987 6.987h73.326 34.919 73.326c3.855 0 6.987-3.132 6.987-6.987v-13.964h-10.476zm97.772 13.968h-20.951c-1.928 0-3.492-1.564-3.492-3.492s1.564-3.492 3.492-3.492h20.951c1.928 0 3.492 1.564 3.492 3.492s-1.564 3.492-3.492 3.492z"/><path d="m101.264 94.281c0 1.928-1.564 3.492-3.492 3.492s-3.492-1.564-3.492-3.492v-8.258l-34.918-16.433v19.041l38.411 19.205 38.411-19.205v-19.041l-34.919 16.433c-.001-.001-.001 8.258-.001 8.258z"/><path d="m6.984 13.968c0-1.928 1.564-3.492 3.492-3.492h174.594c1.928 0 3.492 1.564 3.492 3.492v108.248h6.984v-111.737c0-3.855-3.132-6.987-6.987-6.987h-181.572c-3.855 0-6.987 3.132-6.987 6.987v111.737h6.984z"/><path d="m141.512 59.362h-40.247v3.492c0 1.928-1.564 3.492-3.492 3.492s-3.492-1.564-3.492-3.492v-13.968c0-1.928 1.564-3.492 3.492-3.492s3.492 1.564 3.492 3.492v3.492h40.247l-43.739-20.584-51.16 24.076 51.159 24.076z"/><path d="m13.968 122.216h167.61v-104.757h-167.61zm22.955-69.506 59.362-27.935c.943-.443 2.032-.443 2.975 0 .216.101.433.203.649.304.608.286 1.219.573 1.826.859 16.157 7.602 32.314 15.207 48.474 22.812 1.76.828 3.523 1.659 5.287 2.486.705.332 1.407.663 2.109.992.349.164.723.307 1.058.492 1.212.663 1.962 1.966 1.962 3.338v.873 28.497.81l6.397 9.596c1.069 1.603.636 3.775-.967 4.843-.59.398-1.264.587-1.935.587-1.128 0-2.235-.545-2.909-1.554l-4.079-6.118-4.079 6.118c-.674 1.009-1.777 1.554-2.909 1.554-.663 0-1.337-.189-1.935-.587-1.603-1.069-2.036-3.237-.967-4.843l6.397-9.596v-24.868l-10.472 4.93v24.489c0 1.323-.747 2.532-1.931 3.125l-41.903 20.951c-.492.244-1.027.367-1.561.367s-1.072-.122-1.561-.367l-41.902-20.951c-1.18-.59-1.931-1.802-1.931-3.125v-24.489l-15.455-7.274c-1.226-.576-2.004-1.809-2.004-3.16s.778-2.58 2.004-3.156z"/></svg>