<svg viewBox="0 0 464 464" xmlns="http://www.w3.org/2000/svg"><path d="m32 144v176h128v-63.519531l-14.121094 8.367187-42.726562-42.726562 15.6875-26.480469c-3.648438-6.921875-6.671875-14.226563-9.007813-21.792969l-29.832031-7.632812v-22.207032h-48zm16 16h16v16h-16zm0 32h32v16h-32zm0 32h32v16h-32zm96 80h-96v-16h96zm-32-48v16h-64v-16zm0 0"/><path d="m123.976562 165.152344c2.527344 9.398437 6.230469 18.359375 11.007813 26.648437l2.335937 4.046875-14.074218 23.746094 25.167968 25.167969 23.746094-14.074219 4.046875 2.335938c8.289063 4.777343 17.25 8.480468 26.648438 11.007812l4.503906 1.214844 6.847656 26.761718h35.578125l6.847656-26.761718 4.503907-1.214844c9.398437-2.527344 18.359375-6.230469 26.648437-11.007812l4.046875-2.335938 23.742188 14.074219 25.167969-25.167969-14.070313-23.746094 2.335937-4.046875c4.777344-8.289062 8.480469-17.25 11.007813-26.648437l1.214844-4.503906 26.769531-6.855469v-35.578125l-26.761719-6.847656-1.214843-4.503907c-2.527344-9.398437-6.230469-18.359375-11.007813-26.648437l-2.335937-4.046875 14.074218-23.742188-25.167968-25.167969-23.746094 14.0625-4.039063-2.335937c-8.289062-4.777344-17.25-8.480469-26.648437-11.007813l-4.511719-1.214843-6.847656-26.761719h-35.578125l-6.855469 26.761719-4.503906 1.214843c-9.398438 2.527344-18.359375 6.230469-26.648438 11.007813l-4.046875 2.335937-23.746094-14.074218-25.167968 25.167968 14.074218 23.746094-2.335937 4.046875c-4.777344 8.289063-8.480469 17.25-11.007813 26.648438l-1.214843 4.503906-26.761719 6.855469v35.578125l26.761719 6.847656zm108.023438-125.152344c52.9375 0 96 43.0625 96 96s-43.0625 96-96 96-96-43.0625-96-96 43.0625-96 96-96zm0 0"/><path d="m232 184c26.472656 0 48-21.527344 48-48s-21.527344-48-48-48-48 21.527344-48 48 21.527344 48 48 48zm8-56h16v16h-16zm-32 0h16v16h-16zm0 0"/><path d="m320 432h-176v16h-32v16h240v-16h-32zm0 0"/><path d="m232 216c44.113281 0 80-35.886719 80-80s-35.886719-80-80-80-80 35.886719-80 80 35.886719 80 80 80zm0-144c35.289062 0 64 28.710938 64 64s-28.710938 64-64 64-64-28.710938-64-64 28.710938-64 64-64zm0 0"/><path d="m440 112h-56v54.207031l-29.832031 7.640625c-2.335938 7.558594-5.359375 14.863282-9.007813 21.792969l15.6875 26.480469-42.726562 42.726562-26.480469-15.6875c-6.921875 3.648438-14.226563 6.671875-21.792969 9.007813l-7.640625 29.832031h-60.421875l-7.640625-29.832031c-6.273437-1.9375-12.304687-4.457031-18.152343-7.304688v85.136719h-159.992188v-208h64v-16h-56c-13.230469 0-24 10.769531-24 24v216h464v-216c0-13.230469-10.769531-24-24-24zm8 224h-112v-16h112zm0-32h-112v-16h112zm0-32h-96v-16h96zm0-32h-64v-16h64zm0 0"/><path d="m0 392c0 13.230469 10.769531 24 24 24h416c13.230469 0 24-10.769531 24-24v-24h-464zm432-8h16v16h-16zm-32 0h16v16h-16zm-32 0h16v16h-16zm0 0"/></svg>