<?xml version="1.0" encoding="iso-8859-1"?>
<!-- Generator: Adobe Illustrator 19.0.0, SVG Export Plug-In . SVG Version: 6.00 Build 0)  -->
<svg version="1.1" id="Layer_1" xmlns="http://www.w3.org/2000/svg" xmlns:xlink="http://www.w3.org/1999/xlink" x="0px" y="0px"
	 viewBox="0 0 512 512" style="enable-background:new 0 0 512 512;" xml:space="preserve">
<g>
	<path style="fill:#FF5023;" d="M243.534,148.725h-35.306c0-11.637-4.505-16.666-11.971-24.997
		c-8.854-9.882-20.981-23.417-20.981-48.557s12.128-38.674,20.981-48.557c7.466-8.331,11.971-13.36,11.971-24.997h35.306
		c0,25.14-12.128,38.674-20.981,48.557c-7.466,8.331-11.971,13.36-11.971,24.997s4.505,16.666,11.971,24.996
		C231.406,110.051,243.534,123.585,243.534,148.725z"/>
	<path style="fill:#FF5023;" d="M321.206,148.725H285.9c0-11.637-4.505-16.666-11.971-24.997
		c-8.854-9.882-20.981-23.417-20.981-48.557s12.128-38.674,20.981-48.557l26.296,23.561c-7.466,8.331-11.971,13.36-11.971,24.997
		s4.505,16.666,11.971,24.996C309.079,110.051,321.206,123.585,321.206,148.725z"/>
</g>
<g>
	<path style="fill:#93C7EF;" d="M401.233,313.485v-35.306c26.599,0,44.05-5.122,54.917-16.117
		c15.742-15.926,20.12-47.329,20.516-89.8H424.77v-35.306h86.961l0.204,17.447c0.723,61.897-4.155,105.649-30.672,132.478
		C463.565,304.782,437.388,313.485,401.233,313.485z"/>
	<path style="fill:#93C7EF;" d="M5.884,136.956v75.119c0,46.706,14.52,91.357,41.99,129.13l89.791,123.462h171.876l89.791-123.462
		c27.47-37.774,41.99-82.425,41.99-129.13v-75.119C441.322,136.956,5.884,136.956,5.884,136.956z"/>
</g>
<path style="fill:#78B9EB;" d="M224.704,136.956v327.71h84.838l89.791-123.462c27.47-37.772,41.99-82.424,41.99-129.129v-75.119
	C441.322,136.956,224.704,136.956,224.704,136.956z"/>
<g>
	<polygon style="fill:#FFFFFF;" points="288.967,238.63 264.003,263.593 293.888,293.478 264.003,323.364 288.967,348.327 
		343.816,293.478 	"/>
	<polygon style="fill:#FFFFFF;" points="155.519,293.478 185.404,263.593 160.439,238.63 105.59,293.478 160.439,348.327 
		185.404,323.364 	"/>
	<polygon style="fill:#FFFFFF;" points="259.591,213.452 223.512,213.452 189.817,373.505 225.895,373.505 	"/>
</g>
<path style="fill:#AED5F3;" d="M0,437.055v26.253c0,25.957,21.118,47.074,47.074,47.074h353.058
	c25.957,0,47.074-21.118,47.074-47.074v-26.253H0z"/>
<path style="fill:#93C7EF;" d="M224.704,437.055v73.328h175.429c25.957,0,47.074-21.118,47.074-47.074v-26.253H224.704z"/>
<g>
</g>
<g>
</g>
<g>
</g>
<g>
</g>
<g>
</g>
<g>
</g>
<g>
</g>
<g>
</g>
<g>
</g>
<g>
</g>
<g>
</g>
<g>
</g>
<g>
</g>
<g>
</g>
<g>
</g>
</svg>
