<?xml version="1.0" encoding="iso-8859-1"?>
<!-- Generator: Adobe Illustrator 19.0.0, SVG Export Plug-In . SVG Version: 6.00 Build 0)  -->
<svg version="1.1" id="Capa_1" xmlns="http://www.w3.org/2000/svg" xmlns:xlink="http://www.w3.org/1999/xlink" x="0px" y="0px"
	 viewBox="0 0 512 512" style="enable-background:new 0 0 512 512;" xml:space="preserve">
<g>
	<g>
		<path d="M459.322,143.721l-21.213,21.213c58.484,58.485,58.484,153.647,0,212.133l21.213,21.213
			C529.504,328.098,529.504,213.904,459.322,143.721z"/>
	</g>
</g>
<g>
	<g>
		<path d="M416.895,186.147l-21.213,21.213c35.091,35.091,35.091,92.188,0,127.279l21.213,21.213
			C463.683,309.065,463.683,232.935,416.895,186.147z"/>
	</g>
</g>
<g>
	<g>
		<path d="M374.468,228.573l-21.213,21.214c5.666,5.666,8.787,13.2,8.787,21.213s-3.121,15.547-8.787,21.213l21.213,21.214
			c11.333-11.333,17.574-26.4,17.574-42.427C392.042,254.973,385.801,239.906,374.468,228.573z"/>
	</g>
</g>
<g>
	<g>
		<path d="M148.376,0C66.584,0,0.042,68.251,0.042,152.143v242c0,64.986,51.589,117.857,115,117.857
			c63.962,0,116-52.871,116-117.857v-34.286c0-29.481,18.867-51.624,40.713-77.262c27.79-32.614,59.287-69.58,59.287-130.452
			C331.042,54.032,266.17,0,148.376,0z M248.92,263.138c-23.538,27.625-47.878,56.19-47.878,96.719v34.286
			c0,48.444-38.58,87.857-86,87.857c-46.869,0-85-39.413-85-87.857v-242C30.042,84.793,83.126,30,148.376,30
			c101.302,0,152.667,41.095,152.667,122.143C301.042,201.967,274.545,233.064,248.92,263.138z"/>
	</g>
</g>
<g>
	<g>
		<path d="M253.617,93.722C234.25,71.031,199.823,60,148.372,60c-48.706,0-88.33,41.333-88.33,92.139V211h30
			c16.542,0,30,13.458,30,30s-13.458,30-30,30h-15v30h15c33.084,0,60-26.916,60-60s-26.916-60-60-60v-28.861
			c0-34.263,26.167-62.139,58.33-62.139c41.556,0,69.288,7.806,82.427,23.2c10.243,12.001,10.243,27.571,10.243,38.939
			c0,25.687-11.39,41.51-37.378,71.491c-21.033,24.259-37.977,59.976-46.488,97.993C152.023,344.642,129.611,362,105.042,362v30
			c18.419,0,36.761-6.33,51.646-17.824c15.176-11.717,25.746-28.054,29.763-46c7.351-32.835,22.259-64.572,39.88-84.896
			c27.007-31.157,44.71-54.333,44.71-91.143C271.041,138.857,271.041,114.138,253.617,93.722z"/>
	</g>
</g>
<g>
</g>
<g>
</g>
<g>
</g>
<g>
</g>
<g>
</g>
<g>
</g>
<g>
</g>
<g>
</g>
<g>
</g>
<g>
</g>
<g>
</g>
<g>
</g>
<g>
</g>
<g>
</g>
<g>
</g>
</svg>
