<?xml version="1.0" encoding="utf-8"?>
<!-- Svg Vector Icons : http://www.onlinewebfonts.com/icon -->
<!DOCTYPE svg PUBLIC "-//W3C//DTD SVG 1.1//EN" "http://www.w3.org/Graphics/SVG/1.1/DTD/svg11.dtd">
<svg version="1.1" xmlns="http://www.w3.org/2000/svg" xmlns:xlink="http://www.w3.org/1999/xlink" x="0px" y="0px" viewBox="0 0 1000 1000" enable-background="new 0 0 1000 1000" xml:space="preserve">
<metadata> Svg Vector Icons : http://www.onlinewebfonts.com/icon </metadata>
<g><path d="M929.2,10c0,0-373,5.8-612.4,307.9c-14.1,17.8-27.1,35-39.2,51.7c-7.1,9.8-15.8,113.5-15.8,113.5s-9.1-8.3-14.4-20c-6.8-15-10.3-34.4-10.3-34.4c-134.8,219.6-96.6,334.7-96.6,334.7C130,790.2,108.7,804,80,864.1c-28.8,60.1-26.4,116.8-26.4,116.8c-0.3,11.2,3.8,12.2,9,2.4c0,0,30.6-58.4,55.5-97.3c16-24.9,63.1-84.5,63.1-84.5s76.9,3.7,170.6-21.9c-7.8-3.6-34-10.1-52.5-19.4c-17.5-8.8-27.5-20.6-27.5-20.6l331.9-76.3c47-27.5,88.8-62.6,123.1-103.8C902.8,348.2,946.2,28.9,946.2,28.9C948,17.9,940.4,9.3,929.2,10z M595.9,343.9c0,0-155.9,136.7-233.4,210.6C285,628.3,181.2,800.9,181.2,800.9l-40-37.5c0,0,29.4-71.3,141.9-208.9c112.5-137.6,305.2-221.9,305.2-221.9C613.3,320.1,616.8,325.4,595.9,343.9z"/></g>
</svg>