<?xml version="1.0" standalone="no"?>
<!DOCTYPE svg PUBLIC "-//W3C//DTD SVG 20010904//EN"
 "http://www.w3.org/TR/2001/REC-SVG-20010904/DTD/svg10.dtd">
<svg version="1.0" xmlns="http://www.w3.org/2000/svg"
  viewBox="0 0 494.000000 338.000000"
 >
<g transform="translate(0.000000,338.000000) scale(0.100000,-0.100000)"
fill="#000000" stroke="none">
<path d="M2143 3183 c-237 -95 -363 -151 -366 -162 -3 -10 -111 -60 -308 -140
-483 -196 -510 -208 -610 -265 -143 -82 -243 -159 -364 -281 -128 -129 -212
-243 -288 -393 -130 -256 -185 -503 -157 -717 13 -110 57 -274 92 -350 l23
-50 3 144 c1 80 -2 149 -7 154 -16 16 -1 246 26 366 99 453 371 821 767 1040
50 27 159 77 241 109 83 33 255 103 384 156 129 53 242 94 251 91 9 -3 163 53
341 125 219 89 332 129 349 126 14 -3 169 -63 345 -135 182 -75 322 -126 325
-121 8 13 703 -265 839 -335 216 -113 424 -291 555 -473 165 -232 270 -539
283 -827 5 -104 3 -122 -11 -134 -17 -14 -20 -105 -7 -226 l6 -60 29 65 c55
121 56 132 56 436 l0 284 -31 96 c-114 358 -354 661 -687 870 -130 82 -212
120 -617 283 -248 100 -369 154 -368 163 2 7 -16 20 -40 30 -23 9 -186 76
-361 148 -176 71 -322 130 -325 130 -3 -1 -169 -66 -368 -147z"/>
<path d="M2180 2885 c-185 -75 -306 -129 -308 -138 -2 -9 -139 -71 -350 -157
-412 -170 -465 -194 -557 -250 -156 -95 -276 -203 -378 -339 -182 -242 -265
-514 -267 -873 0 -80 -3 -98 -15 -98 -13 0 -15 -30 -15 -214 l0 -215 49 -59
c51 -61 106 -112 122 -112 14 0 12 483 -2 497 -18 18 -5 419 16 513 81 365
317 679 625 835 36 18 233 101 438 185 255 105 376 150 381 142 5 -8 96 25
290 103 156 63 291 115 300 115 14 0 280 -105 501 -199 61 -25 77 -29 85 -18
8 11 85 -17 376 -138 395 -163 456 -192 565 -266 280 -188 473 -491 523 -819
15 -94 16 -446 3 -463 -12 -14 -22 -517 -11 -517 8 0 109 107 142 151 l27 36
0 217 c0 121 -4 215 -9 212 -4 -3 -11 79 -14 182 -10 329 -73 528 -245 772
-68 96 -236 258 -343 329 -128 86 -173 107 -596 281 -238 97 -373 158 -375
168 -3 16 -597 261 -633 261 -11 0 -157 -56 -325 -124z"/>
<path d="M2233 2588 c-170 -68 -270 -114 -267 -121 2 -7 -37 -29 -99 -54 -56
-23 -234 -96 -395 -161 -163 -67 -328 -141 -373 -168 -252 -152 -408 -394
-464 -715 -12 -69 -16 -154 -16 -317 1 -206 0 -223 -17 -220 -16 3 -17 -16
-20 -254 l-2 -257 27 -25 c25 -23 132 -86 147 -86 11 0 7 518 -4 525 -17 10
-13 524 5 625 51 290 205 511 446 640 109 58 804 339 810 328 5 -7 94 24 251
87 l244 97 239 -96 c147 -59 246 -94 259 -90 18 4 516 -191 738 -289 197 -87
353 -240 448 -438 77 -161 83 -203 88 -552 2 -194 0 -313 -7 -320 -10 -13 -28
-537 -18 -537 9 0 108 59 144 86 l32 25 3 259 c2 191 0 259 -8 256 -8 -3 -13
67 -17 252 -6 275 -16 350 -70 492 -92 245 -274 453 -492 562 -27 14 -207 89
-398 167 -415 169 -397 161 -397 177 0 6 -39 28 -87 47 -49 20 -171 70 -273
111 -101 42 -184 76 -185 75 0 0 -122 -50 -272 -111z"/>
<path d="M2280 2291 c-136 -55 -216 -93 -218 -103 -2 -8 -17 -20 -35 -25 -94
-31 -708 -287 -755 -315 -68 -41 -170 -134 -215 -196 -53 -71 -105 -183 -127
-269 -18 -68 -20 -111 -20 -410 0 -289 -2 -333 -15 -333 -13 0 -15 -34 -15
-248 l0 -248 83 -27 c46 -15 86 -27 90 -27 4 0 7 98 7 219 0 186 -2 220 -16
232 -13 11 -15 58 -12 398 4 365 5 389 26 451 46 137 141 261 255 334 32 20
176 84 320 143 144 58 305 123 357 145 55 22 103 37 115 34 12 -4 96 24 211
70 l191 76 199 -80 c118 -48 201 -76 205 -70 7 11 639 -241 754 -301 96 -49
189 -144 242 -246 78 -151 78 -152 77 -577 -1 -245 -5 -382 -11 -390 -16 -19
-29 -448 -14 -448 6 0 48 12 91 26 l80 27 2 193 c1 107 2 218 2 247 1 35 -3
51 -11 50 -8 -2 -12 90 -15 360 -4 345 -5 365 -27 432 -50 152 -139 282 -256
371 -76 58 -135 88 -338 171 -141 57 -371 151 -489 200 -21 8 -38 21 -38 28 0
7 -12 18 -27 23 -16 6 -117 47 -226 91 -109 45 -201 81 -205 80 -4 0 -104 -40
-222 -88z"/>
<path d="M2325 1990 c-93 -39 -171 -70 -172 -70 -2 0 -3 -6 -3 -13 0 -8 -133
-67 -332 -147 -183 -73 -354 -144 -380 -157 -63 -31 -150 -117 -182 -181 -53
-105 -56 -132 -56 -575 0 -269 -3 -406 -10 -402 -7 4 -10 -61 -10 -188 l0
-194 61 -7 c34 -3 73 -6 85 -6 l24 0 0 145 c0 119 -3 145 -15 153 -14 7 -15
64 -13 478 l3 469 28 57 c50 102 75 117 473 279 255 104 363 144 374 137 10
-6 59 9 161 50 l147 60 142 -59 c147 -60 166 -66 172 -50 2 8 281 -102 646
-255 78 -33 155 -101 190 -168 l27 -51 3 -478 c2 -422 1 -478 -13 -483 -12 -5
-15 -30 -15 -150 l0 -144 33 0 c17 0 56 3 85 6 l52 7 0 188 c0 137 -3 189 -12
189 -8 0 -10 100 -5 398 3 218 1 421 -3 451 -14 86 -62 176 -128 239 -72 70
-86 77 -397 202 -400 161 -424 172 -427 187 -3 13 -287 136 -343 148 -11 2
-96 -27 -190 -65z"/>
<path d="M2370 1696 c-73 -31 -126 -59 -128 -68 -2 -9 -121 -62 -324 -144
-177 -71 -335 -138 -352 -149 -16 -11 -39 -36 -50 -55 -20 -34 -21 -51 -24
-527 -2 -305 -7 -493 -12 -493 -6 0 -10 -45 -10 -105 l0 -105 90 0 90 0 0 59
c0 40 -5 63 -15 71 -13 11 -15 81 -15 524 0 281 4 516 8 522 13 20 655 275
662 263 5 -7 40 3 107 30 55 23 104 41 110 41 5 0 54 -18 108 -40 61 -25 101
-36 105 -30 5 8 219 -75 658 -257 9 -4 12 -119 12 -529 0 -457 -2 -525 -15
-530 -11 -5 -15 -22 -15 -70 l0 -64 90 0 90 0 0 98 c0 54 -4 102 -10 108 -5 5
-10 206 -12 511 -3 577 4 534 -104 588 -34 17 -192 83 -352 149 -179 73 -292
124 -294 133 -3 13 -248 125 -266 122 -4 -1 -63 -25 -132 -53z"/>
<path d="M2415 1395 c-44 -18 -80 -39 -80 -46 0 -9 -104 -56 -272 -123 l-273
-110 0 -493 c0 -322 -3 -493 -10 -493 -5 0 -10 -18 -10 -39 l0 -39 48 -4 c84
-6 122 1 122 22 0 10 -5 20 -10 22 -7 2 -10 167 -11 472 l0 470 230 92 c170
68 231 88 235 78 4 -10 18 -8 65 11 l59 24 59 -23 c32 -14 60 -20 61 -15 2 5
8 9 13 9 5 0 108 -41 229 -91 l220 -92 0 -468 c0 -301 -4 -470 -10 -474 -5 -3
-10 -15 -10 -26 0 -17 8 -19 85 -19 l85 0 0 39 c0 22 -4 43 -10 46 -6 4 -10
180 -10 494 l0 488 -270 113 c-148 62 -270 118 -270 125 0 10 -165 87 -180 84
-3 0 -41 -16 -85 -34z"/>
<path d="M2468 1094 c-20 -9 -38 -23 -41 -32 -3 -11 -61 -39 -171 -82 l-166
-65 0 -437 0 -438 60 0 60 0 0 398 0 397 150 59 150 59 142 -61 143 -60 3
-396 2 -396 60 0 60 0 -2 437 -3 438 -165 66 c-93 38 -166 73 -168 81 -2 11
-64 50 -75 47 -1 0 -18 -7 -39 -15z"/>
<path d="M2438 737 l-48 -21 0 -338 0 -338 115 0 115 0 0 338 0 337 -53 23
c-62 26 -68 26 -129 -1z"/>
</g>
</svg>
