<?xml version="1.0" standalone="no"?>
<!DOCTYPE svg PUBLIC "-//W3C//DTD SVG 20010904//EN"
 "http://www.w3.org/TR/2001/REC-SVG-20010904/DTD/svg10.dtd">
<svg version="1.0" xmlns="http://www.w3.org/2000/svg"
  viewBox="0 0 900.000000 595.000000"
 preserveAspectRatio="xMidYMid meet">
<g transform="translate(0.000000,595.000000) scale(0.100000,-0.100000)"
fill="#0E0097" stroke="none">
<path d="M3140 2985 l0 -2955 2930 0 2930 0 0 2955 0 2955 -2930 0 -2930 0 0
-2955z m1500 2525 c155 -19 322 -71 421 -132 l49 -30 0 -294 0 -294 -79 0
c-84 0 -91 4 -91 55 0 13 -11 60 -25 104 -64 202 -141 305 -279 370 -83 40
-173 55 -296 48 -239 -12 -386 -140 -426 -367 -31 -181 19 -305 172 -427 66
-52 209 -128 319 -168 39 -15 79 -30 90 -35 11 -5 61 -25 110 -44 185 -71 348
-170 452 -274 65 -65 153 -186 153 -210 0 -7 7 -23 15 -35 25 -39 47 -158 52
-281 4 -99 1 -136 -17 -215 -36 -154 -104 -275 -212 -377 -94 -88 -172 -134
-310 -184 -147 -51 -242 -65 -448 -64 -196 0 -323 18 -470 65 -91 29 -237 103
-285 143 l-40 34 -12 223 c-6 123 -15 273 -19 332 l-7 108 83 -3 83 -3 27 -95
c101 -355 283 -559 549 -615 95 -20 157 -19 262 5 147 32 249 97 312 198 66
103 97 256 78 374 -29 172 -178 338 -406 451 -70 35 -178 79 -225 92 -57 16
-267 115 -335 158 -154 97 -269 219 -325 344 -111 251 -59 579 125 780 121
133 321 232 525 261 90 13 329 14 430 2z m2885 0 c180 -17 376 -63 523 -122
l52 -22 0 -323 0 -323 -77 0 -78 0 -24 98 c-39 163 -100 273 -199 362 -67 61
-126 93 -236 128 -76 24 -94 25 -276 25 -182 0 -200 -1 -275 -25 -143 -46
-189 -71 -295 -158 -125 -102 -227 -257 -295 -446 -121 -340 -123 -862 -5
-1215 33 -96 129 -290 160 -319 3 -3 25 -28 48 -57 115 -139 274 -226 482
-264 173 -31 364 -15 510 43 211 84 365 284 449 583 l16 60 78 3 77 3 0 -63
c-1 -35 -5 -106 -10 -158 -18 -196 -30 -327 -35 -401 l-6 -76 -72 -30 c-155
-66 -304 -107 -507 -140 -170 -27 -517 -24 -692 5 -342 58 -561 164 -734 355
-172 190 -292 483 -323 787 -13 126 -14 365 -1 485 9 89 50 280 69 327 6 12
22 55 37 93 27 71 101 209 136 255 69 91 130 161 173 201 61 55 130 109 141
109 4 0 15 7 24 15 27 24 191 101 275 128 103 34 250 66 345 76 111 12 419 12
545 1z m-1686 -3266 c28 -6 31 -10 31 -45 0 -29 -4 -39 -16 -39 -9 0 -18 9
-21 19 -6 23 -55 43 -81 34 -31 -11 -52 -36 -52 -63 0 -36 38 -70 136 -121 49
-25 68 -103 40 -158 -25 -47 -57 -61 -138 -61 -89 0 -104 8 -99 52 4 45 8 47
34 14 16 -19 34 -29 64 -33 35 -5 45 -2 67 20 49 49 30 96 -59 147 -29 17 -66
45 -81 62 -22 27 -25 39 -21 75 5 45 28 79 62 94 24 10 92 11 134 3z m1000
-126 c29 -73 56 -142 61 -153 5 -11 18 -41 29 -67 11 -27 25 -48 30 -48 6 0
11 -9 11 -20 0 -19 -5 -21 -57 -18 -45 2 -59 7 -61 20 -2 9 4 18 12 20 12 2
12 9 -5 46 l-20 43 -86 -3 -86 -3 -14 -40 c-9 -26 -10 -41 -3 -43 5 -2 10 -12
10 -23 0 -16 -7 -19 -45 -19 -37 0 -45 3 -45 19 0 10 6 21 13 24 8 3 42 76 76
164 115 292 107 287 180 101z m-3275 113 c3 -4 -3 -16 -14 -26 -18 -16 -20
-31 -20 -148 0 -181 26 -228 120 -213 64 10 70 28 70 202 0 91 -4 155 -10 159
-5 3 -10 13 -10 21 0 10 13 14 50 14 37 0 50 -4 50 -14 0 -8 -4 -18 -10 -21
-6 -4 -10 -60 -10 -134 0 -213 -29 -261 -159 -261 -63 0 -74 3 -101 28 -37 33
-50 97 -50 255 0 86 -3 109 -15 113 -8 4 -15 12 -15 20 0 10 15 14 59 14 33 0
62 -4 65 -9z m399 -6 c4 -8 26 -45 50 -82 24 -37 67 -104 95 -148 l52 -80 0
142 c0 84 -4 144 -10 148 -5 3 -10 13 -10 21 0 10 13 14 50 14 52 0 65 -15 35
-40 -12 -10 -15 -46 -15 -201 l0 -189 -27 0 c-22 1 -34 10 -54 43 -15 23 -56
87 -91 142 -35 55 -69 109 -76 120 -10 19 -11 19 -18 2 -4 -10 -4 -72 -2 -137
4 -92 9 -122 22 -135 23 -24 11 -35 -39 -35 -48 0 -67 16 -42 35 15 11 17 36
17 183 0 142 -2 171 -15 176 -8 3 -15 12 -15 21 0 21 85 21 93 0z m471 6 c3
-5 -1 -14 -9 -21 -12 -10 -15 -45 -15 -186 0 -109 4 -174 10 -174 6 0 10 -9
10 -20 0 -18 -7 -20 -55 -20 -48 0 -55 2 -55 20 0 11 5 20 10 20 6 0 10 64 10
171 0 139 -3 173 -15 186 -8 8 -13 19 -10 24 8 12 112 12 119 0z m166 -4 c0
-7 -5 -18 -10 -23 -7 -7 -1 -35 20 -90 18 -43 42 -106 55 -139 l23 -59 16 34
c8 19 27 69 41 110 15 41 33 90 41 108 12 28 12 33 -1 38 -8 4 -15 12 -15 20
0 10 13 14 45 14 50 0 54 -8 27 -48 -11 -15 -36 -76 -57 -137 -21 -60 -41
-114 -45 -120 -4 -5 -15 -36 -25 -67 -13 -42 -23 -58 -35 -58 -18 0 -26 17
-115 250 -20 52 -45 110 -56 128 -10 18 -19 37 -19 43 0 5 25 9 55 9 38 0 55
-4 55 -13z m580 -9 c0 -13 -5 -30 -10 -38 -9 -13 -12 -12 -25 4 -11 15 -28 19
-77 20 l-63 1 -3 -72 -3 -72 73 -3 c59 -2 73 -6 76 -20 3 -15 -7 -18 -70 -20
l-73 -3 0 -80 0 -80 67 -3 c59 -3 69 0 80 18 21 34 40 25 36 -17 l-3 -38 -135
0 c-120 0 -135 2 -138 18 -2 10 3 17 12 17 14 0 16 22 16 174 0 145 -2 175
-15 180 -8 3 -15 12 -15 21 0 13 20 15 135 15 133 0 135 0 135 -22z m308 -3
c53 -44 48 -131 -9 -179 -18 -16 -28 -31 -23 -38 32 -59 99 -148 111 -148 8 0
13 -7 11 -17 -2 -13 -14 -19 -38 -21 -45 -3 -50 1 -90 73 -49 87 -71 115 -92
115 -16 0 -18 -9 -18 -74 0 -48 4 -76 12 -78 6 -2 9 -12 5 -21 -5 -13 -19 -17
-57 -17 -43 0 -50 3 -50 19 0 11 5 21 10 23 15 5 16 341 1 346 -6 2 -11 12
-11 23 0 17 8 19 104 19 97 0 107 -2 134 -25z m592 11 c0 -8 -7 -16 -15 -20
-13 -4 -15 -34 -15 -181 0 -152 2 -175 16 -175 9 0 14 -7 12 -17 -5 -26 -118
-32 -118 -8 0 9 7 23 15 31 22 22 22 311 0 340 -27 36 -19 44 45 44 45 0 60
-4 60 -14z m354 -7 c23 -11 53 -37 66 -56 22 -32 25 -47 25 -128 0 -83 -3 -95
-28 -133 -45 -69 -91 -86 -227 -87 -101 0 -115 2 -118 18 -2 10 3 17 12 17 14
0 16 22 16 174 0 145 -2 175 -15 180 -8 3 -15 12 -15 21 0 13 19 15 121 15
103 0 128 -3 163 -21z m867 -2 c79 -41 117 -157 84 -256 -37 -112 -86 -142
-242 -149 -102 -4 -113 -3 -120 14 -4 10 -2 19 5 22 9 3 12 53 12 177 0 141
-3 175 -15 185 -28 23 -3 30 114 30 103 0 123 -3 162 -23z m429 -12 c0 -37
-15 -46 -35 -19 -9 13 -29 17 -76 18 l-64 1 -3 -72 -3 -72 73 -3 c59 -2 73 -6
76 -20 3 -15 -7 -18 -70 -20 l-73 -3 -3 -50 c-2 -27 -1 -65 3 -82 l6 -33 70 0
c62 0 71 2 76 20 7 28 31 25 39 -5 13 -52 6 -55 -140 -55 -139 0 -169 9 -130
37 17 13 19 28 19 177 0 142 -2 166 -17 183 -10 11 -18 23 -18 26 0 4 61 7
135 7 l135 0 0 -35z m-3102 -671 c17 -5 22 -14 22 -40 0 -43 -14 -50 -37 -18
-16 22 -28 27 -62 27 -44 0 -56 -9 -67 -51 -9 -33 17 -65 81 -101 80 -45 104
-76 105 -131 0 -52 -18 -83 -60 -105 -30 -15 -114 -20 -169 -9 -28 6 -31 10
-31 45 0 32 3 39 20 39 11 0 20 -7 20 -16 0 -16 56 -44 90 -44 30 0 70 44 70
77 -1 37 -14 52 -84 93 -78 47 -106 81 -106 130 0 30 7 46 34 74 31 33 38 36
92 36 33 0 69 -3 82 -6z m319 -52 c96 -254 120 -308 146 -339 27 -31 14 -43
-49 -43 -47 0 -54 3 -54 19 0 11 5 21 11 23 7 2 5 18 -6 46 l-17 42 -87 0 -88
0 -14 -42 c-10 -32 -11 -42 -1 -46 7 -2 12 -12 12 -23 0 -16 -7 -19 -45 -19
-52 0 -58 14 -25 60 11 16 27 48 35 72 8 24 19 52 25 63 5 11 26 63 46 115 46
121 51 130 72 130 11 0 24 -19 39 -58z m1464 -42 c20 -52 42 -106 48 -120 5
-14 17 -44 25 -66 18 -53 46 -107 59 -115 5 -4 7 -14 4 -23 -5 -12 -20 -16
-56 -16 -52 0 -76 17 -49 34 14 8 14 14 1 53 l-15 43 -87 0 -86 0 -18 -40
c-21 -49 -21 -50 -1 -50 9 0 14 -7 12 -17 -2 -13 -15 -19 -42 -21 -54 -5 -62
8 -33 51 14 20 43 85 66 144 80 204 85 218 95 231 20 28 41 5 77 -88z m482 94
c41 -7 55 -32 39 -73 -8 -21 -10 -22 -24 -7 -9 8 -18 20 -20 26 -5 16 -77 31
-115 24 -116 -21 -155 -242 -58 -334 28 -26 85 -40 131 -33 33 5 34 7 34 54 0
42 -3 49 -20 49 -13 0 -20 7 -20 20 0 18 7 20 65 20 50 0 65 -3 65 -15 0 -7
-7 -18 -16 -23 -10 -6 -17 -29 -21 -69 -5 -58 -7 -61 -36 -67 -52 -11 -157 -6
-190 8 -63 26 -117 123 -117 211 0 81 53 173 115 201 32 14 125 18 188 8z
m440 -27 c63 -48 80 -88 81 -186 0 -72 -4 -93 -23 -128 -38 -67 -74 -87 -161
-91 -68 -3 -79 -1 -117 24 -106 70 -121 280 -27 366 43 38 78 49 145 46 54 -3
73 -9 102 -31z m-3610 7 c75 -38 107 -93 107 -187 0 -87 -35 -157 -96 -193
-39 -23 -55 -26 -161 -27 -105 -2 -118 0 -121 16 -2 10 3 17 12 17 14 0 16 23
16 180 0 153 -2 180 -15 180 -8 0 -15 7 -15 15 0 23 228 22 273 -1z m445 -9
c1 -11 -3 -27 -8 -35 -9 -13 -13 -12 -27 8 -13 19 -24 22 -79 22 l-64 0 0 -75
0 -74 72 -3 c60 -2 73 -6 76 -20 3 -16 -6 -18 -72 -18 l-76 0 0 -62 c0 -35 3
-74 7 -87 6 -22 9 -23 71 -18 45 3 68 10 74 21 5 9 16 16 24 16 11 0 14 -9 12
-37 l-3 -38 -133 -3 c-116 -2 -133 0 -139 14 -4 10 0 20 10 26 15 8 17 31 17
179 0 142 -2 171 -15 175 -8 4 -15 13 -15 20 0 12 23 14 133 12 123 -3 132 -4
135 -23z m1108 -47 c26 -40 60 -92 75 -116 16 -24 29 -45 29 -48 0 -2 14 -23
30 -46 l30 -41 0 140 c0 112 -3 143 -15 153 -24 20 -8 30 46 30 35 0 49 -4 49
-14 0 -8 -7 -16 -15 -20 -12 -4 -15 -39 -17 -198 l-3 -193 -25 -2 c-20 -2 -31
6 -54 45 -75 119 -170 262 -176 262 -3 0 -6 -59 -6 -132 1 -96 4 -132 14 -135
6 -3 12 -13 12 -24 0 -16 -7 -19 -45 -19 -50 0 -73 24 -42 42 15 8 17 31 17
173 0 132 -3 166 -15 179 -25 24 -17 36 25 36 38 0 41 -3 86 -72z m659 37 c0
-35 -29 -48 -38 -15 -4 17 -13 20 -61 20 l-56 0 0 -170 c0 -157 1 -171 20
-188 18 -16 19 -21 6 -31 -23 -19 -110 -10 -114 12 -2 10 3 17 11 17 20 0 27
51 27 218 l0 142 -59 0 c-50 0 -59 -3 -64 -20 -3 -11 -12 -20 -21 -20 -12 0
-16 10 -16 35 l0 35 183 -2 182 -3 0 -30z m175 21 c0 -8 -7 -16 -15 -20 -13
-4 -15 -33 -15 -175 0 -148 2 -171 17 -179 10 -6 14 -16 10 -26 -5 -12 -20
-16 -57 -16 -37 0 -52 4 -57 16 -4 10 0 20 10 26 15 8 17 31 17 173 0 132 -3
166 -15 179 -28 27 -17 36 45 36 45 0 60 -4 60 -14z m-2380 -713 c93 -41 130
-189 75 -299 -16 -32 -39 -59 -67 -77 -40 -26 -48 -27 -165 -27 -98 0 -123 3
-123 14 0 8 7 16 15 20 13 4 15 34 15 181 0 149 -2 175 -15 175 -20 0 -19 28
1 32 33 6 240 -8 264 -19z m438 -8 c1 -11 -3 -27 -8 -35 -9 -13 -13 -12 -27 8
-13 19 -24 22 -80 22 l-64 0 3 -77 3 -78 73 -3 c52 -2 72 -6 69 -15 -2 -8 -28
-12 -73 -12 l-69 0 -3 -60 c-5 -101 -3 -105 77 -105 52 0 70 4 75 15 11 30 36
17 36 -20 l0 -35 -140 0 c-113 0 -140 3 -140 14 0 8 7 16 15 20 13 4 15 34 15
176 0 142 -2 172 -15 176 -8 4 -15 12 -15 19 0 17 47 21 170 15 86 -5 95 -7
98 -25z m556 25 c21 -8 26 -16 26 -45 0 -42 -20 -47 -44 -11 -29 45 -126 44
-176 -2 -25 -23 -51 -96 -52 -147 -2 -140 86 -214 217 -180 60 16 72 15 60 -5
-21 -34 -159 -53 -219 -30 -34 13 -73 48 -99 90 -18 29 -22 50 -22 120 0 72 4
92 25 128 38 66 88 92 182 92 42 0 88 -4 102 -10z m372 0 c15 -6 44 -28 65
-50 44 -45 54 -91 47 -202 -5 -57 -10 -75 -35 -106 -45 -56 -86 -74 -164 -70
-53 3 -75 9 -107 32 -56 39 -86 113 -80 199 6 80 32 133 86 174 38 29 51 33
102 33 32 0 71 -5 86 -10z m1325 -19 c60 -37 82 -85 87 -181 7 -155 -74 -240
-219 -227 -102 9 -158 70 -167 182 -9 113 30 204 101 239 18 9 58 16 93 16 49
0 68 -5 105 -29z m384 16 c13 -10 16 -21 11 -40 -8 -32 -26 -35 -43 -8 -17 28
-68 36 -98 17 -19 -12 -25 -25 -25 -51 0 -40 8 -49 100 -108 74 -48 93 -76 86
-131 -10 -81 -79 -117 -200 -102 l-56 7 0 40 c0 32 3 39 20 39 13 0 20 -7 20
-18 0 -13 13 -23 39 -32 51 -16 94 -1 111 40 18 43 -7 81 -82 123 -77 44 -113
92 -104 139 7 36 30 68 61 86 28 16 137 15 160 -1z m435 -33 c0 -38 -24 -48
-33 -14 -4 17 -14 20 -56 20 l-51 0 0 -180 c0 -113 4 -180 10 -180 6 0 10 -7
10 -15 0 -12 -13 -15 -60 -15 -61 0 -72 8 -45 30 12 10 15 44 15 186 l0 174
-55 0 c-48 0 -55 -2 -55 -20 0 -13 -7 -20 -20 -20 -16 0 -20 7 -20 34 0 34 1
35 48 38 26 2 107 2 180 0 l132 -3 0 -35z m920 19 c6 -16 15 -37 20 -48 5 -11
35 -85 66 -165 31 -80 63 -149 71 -153 7 -4 13 -15 13 -22 0 -12 -14 -15 -60
-15 -45 0 -60 4 -60 14 0 8 7 16 14 19 13 5 13 12 -2 46 l-17 41 -86 0 -86 0
-16 -41 c-14 -34 -14 -41 -1 -46 8 -3 14 -11 14 -19 0 -10 -14 -14 -50 -14
l-51 0 25 43 c13 23 50 107 81 187 79 202 78 200 98 200 10 0 22 -12 27 -27z
m-2762 -10 c6 -16 27 -71 47 -123 20 -52 41 -106 48 -118 l11 -24 10 24 c5 12
18 42 28 65 10 23 18 45 18 48 0 4 7 21 15 38 8 18 21 50 28 72 13 38 16 40
60 43 36 2 47 0 47 -12 0 -8 -6 -16 -12 -18 -10 -4 -13 -48 -13 -178 0 -130 3
-174 13 -178 6 -2 12 -10 12 -18 0 -10 -14 -14 -55 -14 -41 0 -55 4 -55 14 0
8 5 18 10 21 6 4 10 62 9 143 0 75 -3 130 -6 122 -79 -214 -104 -270 -125
-270 -10 0 -18 5 -18 11 0 6 -6 25 -14 42 -31 69 -76 189 -76 205 0 12 -3 13
-11 5 -16 -16 -8 -255 9 -261 6 -2 12 -10 12 -18 0 -10 -14 -14 -50 -14 -37 0
-50 4 -50 14 0 8 5 18 10 21 6 4 10 75 10 181 0 109 -4 174 -10 174 -5 0 -10
7 -10 15 0 11 12 15 49 15 44 0 50 -3 59 -27z m622 12 c37 -19 50 -43 50 -95
0 -82 -43 -125 -134 -136 l-56 -7 0 -64 c0 -47 4 -65 15 -69 8 -4 15 -12 15
-20 0 -11 -16 -14 -65 -14 -66 0 -81 10 -45 30 19 10 20 21 20 175 0 151 -2
167 -19 182 -11 9 -18 20 -15 25 9 15 202 9 234 -7z m1550 -14 c0 -39 -20 -50
-38 -23 -12 19 -24 22 -79 22 l-64 0 3 -77 3 -78 73 -3 c52 -2 72 -6 69 -15
-2 -8 -26 -12 -65 -12 -33 0 -66 -5 -72 -11 -7 -7 -10 -39 -8 -80 l3 -69 69
-3 c55 -2 72 0 78 13 17 29 38 17 38 -20 l0 -35 -140 0 c-113 0 -140 3 -140
14 0 8 7 16 15 20 13 4 15 34 15 176 0 142 -2 172 -15 176 -8 4 -15 12 -15 20
0 11 26 14 135 14 l135 0 0 -29z m185 20 c3 -6 -3 -14 -12 -20 -16 -8 -18 -28
-21 -157 -5 -203 -8 -194 83 -194 68 0 75 2 75 20 0 11 7 20 15 20 11 0 15
-11 15 -40 l0 -40 -140 0 c-77 0 -140 3 -140 7 0 3 8 15 17 26 33 36 30 357
-3 357 -8 0 -14 7 -14 15 0 12 13 15 59 15 33 0 62 -4 66 -9z"/>
<path d="M5358 2203 c-15 -4 -18 -17 -18 -90 l0 -86 36 6 c55 9 84 41 84 92 0
58 -46 94 -102 78z"/>
<path d="M6250 2031 l0 -181 45 0 c94 0 145 42 166 136 11 47 10 63 -4 108
-23 72 -63 102 -145 112 l-62 7 0 -182z"/>
<path d="M7110 2030 l0 -182 60 4 c64 5 98 22 134 72 17 22 21 42 21 105 0 69
-3 81 -28 114 -36 47 -50 54 -125 63 l-62 7 0 -183z"/>
<path d="M7184 1503 c-98 -20 -128 -254 -44 -338 26 -25 38 -30 80 -30 40 0
54 5 79 29 31 30 53 96 53 160 0 49 -29 129 -55 154 -23 21 -76 33 -113 25z"/>
<path d="M3540 1327 l0 -175 33 -6 c43 -8 95 2 128 25 39 27 59 78 59 148 0
118 -45 170 -156 179 l-64 5 0 -176z"/>
<path d="M3540 615 l0 -175 68 0 c61 0 72 3 100 28 40 36 52 69 52 145 0 114
-59 176 -167 177 l-53 0 0 -175z"/>
<path d="M4974 791 c-36 -16 -72 -69 -80 -117 -25 -167 49 -281 159 -245 43
15 62 35 82 90 29 84 11 203 -40 251 -25 24 -88 35 -121 21z"/>
<path d="M6263 785 c-50 -21 -77 -83 -78 -175 0 -96 30 -156 88 -179 84 -31
162 33 167 139 5 95 0 126 -27 168 -38 59 -88 74 -150 47z"/>
<path d="M5887 783 c-4 -3 -7 -44 -7 -90 l0 -83 34 0 c55 0 89 36 90 94 1 39
-3 51 -23 67 -22 18 -81 26 -94 12z"/>
<path d="M0 5385 c0 -86 -9 -80 125 -91 44 -3 94 -12 112 -19 66 -27 63 6 63
-837 0 -819 6 -952 44 -1105 42 -165 84 -253 173 -357 183 -218 468 -321 888
-321 270 1 458 37 637 125 90 44 117 63 203 147 129 124 202 284 242 528 15
97 18 207 23 941 6 911 1 853 65 879 17 7 87 18 158 25 l127 13 0 73 0 74
-565 0 -565 0 0 -74 0 -74 78 -7 c192 -16 244 -34 259 -85 14 -44 9 -1646 -4
-1725 -42 -240 -92 -367 -191 -476 -109 -121 -278 -189 -471 -189 -223 0 -417
95 -519 255 -72 113 -114 244 -139 438 -15 114 -18 235 -18 897 0 701 1 768
17 803 23 50 55 62 202 76 65 7 123 14 128 17 4 3 8 36 8 75 l0 69 -540 0
-540 0 0 -75z"/>
</g>
</svg>
