<?xml version="1.0" standalone="no"?>
<!DOCTYPE svg PUBLIC "-//W3C//DTD SVG 20010904//EN"
 "http://www.w3.org/TR/2001/REC-SVG-20010904/DTD/svg10.dtd">
<svg version="1.0" xmlns="http://www.w3.org/2000/svg"
  viewBox="0 0 246.000000 112.000000"
 >
<g transform="translate(0.000000,112.000000) scale(0.100000,-0.100000)"
fill="#1800FF" stroke="none">
<path d="M1111 1074 c-26 -22 -31 -33 -31 -71 0 -58 12 -79 55 -93 43 -14 96
7 114 46 18 40 14 101 -9 124 -30 30 -90 27 -129 -6z"/>
<path d="M963 1052 c-90 -3 -91 -3 -97 -30 -4 -15 -36 -123 -73 -240 -43 -136
-69 -207 -74 -195 -3 10 -17 118 -29 241 l-24 222 -68 0 c-46 0 -70 -4 -72
-12 -26 -89 -150 -455 -157 -462 -5 -6 -9 0 -9 15 0 13 -9 121 -20 239 -11
118 -20 216 -20 218 0 1 -43 2 -95 2 -92 0 -95 -1 -95 -22 0 -13 18 -133 39
-268 21 -135 44 -282 51 -327 l12 -83 104 0 103 0 51 158 c79 242 74 237 89
107 7 -60 17 -145 23 -187 l10 -78 102 0 102 0 24 68 c14 37 30 85 36 107 6
22 40 117 74 210 67 183 112 317 108 319 -2 0 -44 0 -95 -2z"/>
<path d="M1770 951 c0 -15 -3 -49 -6 -75 -6 -42 -9 -46 -35 -46 -31 0 -35 -9
-41 -87 -3 -39 -1 -42 22 -45 25 -3 25 -3 22 -93 -5 -125 4 -169 39 -210 53
-59 175 -70 242 -20 17 12 17 16 3 67 l-16 53 -47 0 c-46 0 -47 1 -56 37 -5
21 -5 65 0 100 l8 63 68 3 67 3 0 42 c0 23 3 52 6 65 6 21 4 22 -61 22 l-67 0
7 75 7 75 -81 0 -81 0 0 -29z"/>
<path d="M1055 630 c-17 -186 -18 -202 -2 -235 19 -40 74 -62 130 -51 29 5 36
12 41 37 10 51 7 81 -9 100 -14 15 -14 31 0 164 8 81 15 156 15 166 0 17 -8
19 -78 19 l-78 0 -19 -200z"/>
<path d="M1316 814 c-10 -27 -6 -108 7 -126 10 -13 10 -41 0 -140 -6 -67 -12
-140 -12 -160 l-1 -38 75 0 c88 0 79 -14 95 165 13 150 24 170 86 161 l43 -6
36 72 c42 83 39 88 -47 88 -46 0 -62 -5 -86 -25 l-29 -24 -23 24 c-20 21 -33
25 -81 25 -43 0 -58 -4 -63 -16z"/>
<path d="M2096 793 c-3 -21 -6 -50 -6 -65 0 -28 1 -28 68 -29 37 -1 75 -2 85
-2 30 0 18 -11 -49 -47 -72 -38 -84 -56 -84 -125 0 -40 3 -45 26 -51 l25 -7
-34 -28 c-102 -84 -103 -247 -1 -307 33 -20 49 -22 112 -19 94 5 144 37 185
117 25 49 28 63 24 125 -2 40 -11 83 -21 100 -9 17 -25 44 -34 60 -10 17 -37
39 -60 50 -22 11 -41 23 -42 26 0 3 38 27 85 53 l85 47 0 69 0 70 -179 0 -178
0 -7 -37z m179 -359 c39 -15 60 -119 31 -156 -18 -24 -57 -37 -83 -27 -45 17
-43 112 3 161 15 15 29 28 30 28 1 0 10 -3 19 -6z"/>
<path d="M1100 223 c-325 -7 -1002 -50 -1078 -68 -19 -5 -22 -12 -22 -60 0
-46 3 -55 18 -55 50 -1 400 35 397 40 -4 6 91 14 512 40 83 5 335 14 560 20
224 6 416 13 426 16 21 7 40 41 33 60 -5 12 -63 14 -373 12 -202 -1 -415 -3
-473 -5z"/>
</g>
</svg>
